<svg xmlns="http://www.w3.org/2000/svg" width="226.686" height="163.169" viewBox="0 0 226.686 163.169"><defs><style>.a{fill:#3f3d56;}.b{fill:#f2f2f2;}.c,.e{fill:#60b198;}.c{opacity:0.4;}.d{fill:#2f2e41;}.f{fill:#ffb8b8;}.g{opacity:0.1;}.h{fill:#d0cde1;}</style></defs><g transform="translate(0 0)"><ellipse class="a" cx="57.561" cy="7.223" rx="57.561" ry="7.223" transform="translate(54.005 148.723)"/><path class="b" d="M307.5,376.319l-22.252,10.531,19.694-14.726a111.131,111.131,0,0,0-10.753-14.15l-96.5,23.987,87.171-33.253a111.105,111.105,0,0,0-12.658-9.648l-147.05,23.686a110.2,110.2,0,0,0-24.136,68.775h221.35a110.146,110.146,0,0,0-14.861-55.2Z" transform="translate(-98.56 -282.131)"/><path class="b" d="M349.82,269.253a110.752,110.752,0,0,0-133.53,28.7C251.054,290.339,311.582,277.153,349.82,269.253Z" transform="translate(-188.223 -219.162)"/><circle class="c" cx="3.316" cy="3.316" r="3.316" transform="translate(180.051 54.102)"/><circle class="c" cx="2.326" cy="2.326" r="2.326" transform="translate(174.904 56.676)"/><circle class="c" cx="6.945" cy="6.945" r="6.945" transform="translate(19.447 59.261)"/><circle class="c" cx="4.872" cy="4.872" r="4.872" transform="translate(8.667 64.65)"/><rect class="d" width="226.686" height="0.444" transform="translate(0 149.168)"/><path class="a" d="M932.655,662.323,915,636.1s26.737,9.334,23.7,26.224Z" transform="translate(-731.651 -513.155)"/><path class="e" d="M975.554,662.323,993.209,636.1s-26.737,9.334-23.7,26.224Z" transform="translate(-773.857 -513.155)"/><path class="b" d="M186.781,192.088c0-1.444-2.059-2.614-4.6-2.614l-.15,0c-.766-2.349-4.388-4.127-8.74-4.127-3.7,0-6.877,1.288-8.214,3.118a11.647,11.647,0,0,0-3.027-.388c-3.894,0-7.051,1.795-7.051,4.009,0,2.011,2.605,3.676,6,3.964a64.642,64.642,0,0,0,10.655.742c7.355,0,12.738-1.4,12.873-2.458C185.877,193.88,186.781,193.044,186.781,192.088Z" transform="translate(-140.554 -162.581)"/><path class="b" d="M686.78,197.088c0-1.444-2.059-2.614-4.6-2.614l-.15,0c-.766-2.348-4.388-4.127-8.74-4.127-3.7,0-6.877,1.288-8.214,3.118a11.648,11.648,0,0,0-3.027-.388c-3.894,0-7.051,1.795-7.051,4.009,0,2.011,2.605,3.676,6,3.964a64.641,64.641,0,0,0,10.655.742c7.356,0,12.738-1.4,12.873-2.458C685.877,198.88,686.78,198.044,686.78,197.088Z" transform="translate(-529.434 -166.47)"/><path class="b" d="M881.783,94.731c0-2.534-3.614-4.589-8.071-4.589-.088,0-.176,0-.263,0-1.345-4.122-7.7-7.244-15.342-7.244-6.5,0-12.072,2.26-14.418,5.473a20.443,20.443,0,0,0-5.313-.68c-6.835,0-12.376,3.15-12.376,7.036,0,3.53,4.573,6.452,10.534,6.958a113.462,113.462,0,0,0,18.7,1.3c12.911,0,22.357-2.463,22.594-4.314C880.2,97.877,881.783,96.409,881.783,94.731Z" transform="translate(-662.43 -82.902)"/><path class="d" d="M536.031,344.257c-4.6-7.767-13.692-8.129-13.692-8.129s-8.862-1.133-14.547,10.7c-5.3,11.026-12.612,21.673-1.177,24.254l2.065-6.429,1.279,6.907a44.734,44.734,0,0,0,4.893.084c12.246-.4,23.908.116,23.533-4.279C537.885,361.52,540.454,351.731,536.031,344.257Z" transform="translate(-409.316 -279.827)"/><path class="d" d="M518.366,664.606a18.138,18.138,0,0,1-.586,2.524c-.288.809-.732,1.557-.995,2.374-.838,2.6.324,5.509,2.18,7.52a12.272,12.272,0,0,0,5.983,3.553,24.413,24.413,0,0,0,5.142.54c4.779.162,9.681.307,14.209-1.229a24.689,24.689,0,0,0,4.128-1.875,3.09,3.09,0,0,0,1.071-.843,2.947,2.947,0,0,0,.387-1.73c-.01-2.026-.421-4.041-.323-6.065a24.047,24.047,0,0,0,.161-3.358,6.2,6.2,0,0,0-4.735-5.336,12.861,12.861,0,0,0-3.925,0,100.071,100.071,0,0,1-10.214.457c-3.484-.022-6.947-.554-10.414-.61-1.025-.016-1,.3-1.331,1.292A24.172,24.172,0,0,0,518.366,664.606Z" transform="translate(-421.72 -532.153)"/><path class="f" d="M554.79,439.189a6.081,6.081,0,0,1-.875,2.506c-.606.829-1.594,1.3-2.247,2.1-.982,1.194-1.038,2.874-1.042,4.42a5.445,5.445,0,0,0,2.885,5.946c2.978,2.007,6.2,4.05,9.787,4.116a5.2,5.2,0,0,0,4.062-1.477,6.1,6.1,0,0,0,.983-1.755,23.294,23.294,0,0,0,1.649-7.093,8.327,8.327,0,0,0-.314-3.407,31.464,31.464,0,0,0-1.9-3.37,7.5,7.5,0,0,1-.722-4.439.48.48,0,0,0-.025-.322.469.469,0,0,0-.386-.156l-7.12-.513a15.489,15.489,0,0,1-1.977-.226c-.384-.078-1.4-.623-1.764-.478C555.107,435.306,554.929,438.462,554.79,439.189Z" transform="translate(-448.256 -356.76)"/><path class="g" d="M554.79,439.189a6.081,6.081,0,0,1-.875,2.506c-.606.829-1.594,1.3-2.247,2.1-.982,1.194-1.038,2.874-1.042,4.42a5.445,5.445,0,0,0,2.885,5.946c2.978,2.007,6.2,4.05,9.787,4.116a5.2,5.2,0,0,0,4.062-1.477,6.1,6.1,0,0,0,.983-1.755,23.294,23.294,0,0,0,1.649-7.093,8.327,8.327,0,0,0-.314-3.407,31.464,31.464,0,0,0-1.9-3.37,7.5,7.5,0,0,1-.722-4.439.48.48,0,0,0-.025-.322.469.469,0,0,0-.386-.156l-7.12-.513a15.489,15.489,0,0,1-1.977-.226c-.384-.078-1.4-.623-1.764-.478C555.107,435.306,554.929,438.462,554.79,439.189Z" transform="translate(-448.256 -356.76)"/><circle class="f" cx="10.445" cy="10.445" r="10.445" transform="translate(102.898 62.493)"/><path class="h" d="M562.747,491.964a6.408,6.408,0,0,0,1.835,1.466,5.765,5.765,0,0,0,2.292.436,6.911,6.911,0,0,0,5.234-1.646c1.688-1.745,1.633-4.559,2.956-6.6a1.469,1.469,0,0,1,.426-.466,1.382,1.382,0,0,1,.725-.167c1.671-.016,3.127,1.068,4.442,2.1a5.851,5.851,0,0,1,1.563,1.592,5.4,5.4,0,0,1,.527,1.614,70.917,70.917,0,0,1,1.073,9.68c.116,1.791.232,3.584.223,5.378-.028,5.913-1.4,11.727-2.769,17.48a2.731,2.731,0,0,1-1.091,1.925,2.689,2.689,0,0,1-.952.232,116.5,116.5,0,0,1-11.778.981q-2.307.036-4.612-.112a2.483,2.483,0,0,1-.777-.135,2.191,2.191,0,0,1-.847-.719c-2.132-2.686-2.258-6.4-2.244-9.829q.05-12.576.9-25.132a2.765,2.765,0,0,0-.441-2.074A25.956,25.956,0,0,0,562.747,491.964Z" transform="translate(-454.748 -395.63)"/><path class="e" d="M509.579,458.831c-.353.639-2.954,2.224-3.456,2.754-2.806,2.957-7.926,2.846-10.492,6.014a9.869,9.869,0,0,0-1.717,3.907,9.347,9.347,0,0,0,.069,5.972c.786,1.786,2.442,3.021,3.566,4.617a17.782,17.782,0,0,1,2.321,5.955,13.707,13.707,0,0,1,.636,4.679c-.174,1.791-1.04,3.43-1.552,5.155s-.6,3.779.583,5.134a5.857,5.857,0,0,0,3.535,1.613,40.61,40.61,0,0,0,5.039.439c1.489.066,3.131.079,4.276-.876a4.3,4.3,0,0,0,1.347-3.151,20.338,20.338,0,0,0-.347-3.506c-.159-1.209-.22-2.429-.271-3.647q-.344-8.2-.094-16.411a13.968,13.968,0,0,0-.166-3.405,18.668,18.668,0,0,0-1.771-4.118,15.585,15.585,0,0,1-1.728-8.233C509.557,458.791,510.835,456.559,509.579,458.831Z" transform="translate(-403.792 -374.558)"/><path class="e" d="M619.366,455.487c.537.552,2.363.734,3.047,1.09a10.676,10.676,0,0,0,2,.693,26,26,0,0,1,7.036,3.229,4.27,4.27,0,0,1,1.177,1.016,4.659,4.659,0,0,1,.651,1.838,15.642,15.642,0,0,1-.56,10.27l-2,6.4c-1.495,4.779-3,9.605-3.42,14.6a34.33,34.33,0,0,0,.308,8.289.983.983,0,0,1-.1.8.791.791,0,0,1-.49.226,4.811,4.811,0,0,1-2.778-.778,30.758,30.758,0,0,0-8.48-2.775,19.712,19.712,0,0,0,2.634-5.429,32.865,32.865,0,0,0,.8-3.734l.932-5.388a52.947,52.947,0,0,0,.8-5.959,7.457,7.457,0,0,0-.13-2.245,10.888,10.888,0,0,0-.851-2.024,17.3,17.3,0,0,1-1.652-10.33,15.093,15.093,0,0,0,.564-4.594,32.342,32.342,0,0,0-.371-4.086C616.921,450.6,618.355,454.448,619.366,455.487Z" transform="translate(-498.911 -370.992)"/><path class="e" d="M494.474,509.351c-.7,1.453-1.87,2.69-2.268,4.252a9.289,9.289,0,0,0-.2,2.222,10.557,10.557,0,0,0,.33,3.342c.222.689.584,1.324.844,2a7.251,7.251,0,0,1,.475,2.963c-.07,1.4-.546,2.757-.583,4.158-.058,2.2.96,4.273,1.954,6.239a4.586,4.586,0,0,1,6.666-2.182,1.367,1.367,0,0,0,.3-1q.11-3.832.213-7.665a45.833,45.833,0,0,0-.7-11.8,11.135,11.135,0,0,0-2.22-4.815c-.616-.709-2.709-2.578-3.721-1.783-.455.357-.349,1.33-.421,1.823A7.732,7.732,0,0,1,494.474,509.351Z" transform="translate(-402.661 -411.261)"/><path class="e" d="M655.643,492.427a10.689,10.689,0,0,1,.357,3.215q.02,3.313-.088,6.625a12.348,12.348,0,0,1-.43,3.354c-.226.711-.575,1.377-.808,2.086-.7,2.123-.317,4.426-.257,6.66a7.566,7.566,0,0,1-.183,2.154,17.744,17.744,0,0,1-2.054,3.76,36.977,36.977,0,0,1-1.84,3.641,3.471,3.471,0,0,1-3.463,1.652,3.823,3.823,0,0,1-2.2-2.05,10.055,10.055,0,0,1-1.04-6.522c.493-2.712,2.086-5.118,2.66-7.814.789-3.7-.41-7.523-.374-11.308a5.466,5.466,0,0,1,.238-1.753,7.336,7.336,0,0,1,1.547-2.248,28.4,28.4,0,0,0,2.079-2.728c.428-.638,1.009-2.28,1.768-2.417C653.249,488.429,655.223,491.117,655.643,492.427Z" transform="translate(-520.474 -398.522)"/><path class="d" d="M429.856,670.391a10.308,10.308,0,0,0-2.868-.3,7.158,7.158,0,0,0-6.645,8.438,12.02,12.02,0,0,0,1.136,3.105,10.375,10.375,0,0,0,3.081,4.073A12,12,0,0,0,427.279,687l7.416,2.794c1.091.411,2.182.822,3.284,1.2a64.233,64.233,0,0,0,17.152,3.41,18.571,18.571,0,0,0,5.326-.27,1.734,1.734,0,0,0,1.091-.589,1.869,1.869,0,0,0,.244-.8l.456-3.195a2.676,2.676,0,0,0-.039-1.347,2.58,2.58,0,0,0-1.233-1.162c-4.875-2.8-10.568-4.345-14.672-8.188-.966-.9-1.775-2.339-2.948-2.953-1.331-.7-2.9-1.095-4.274-1.737C436.073,672.754,433.116,671.14,429.856,670.391Z" transform="translate(-346.835 -539.585)"/><path class="g" d="M485.253,688.289c2.621.821,13.688,6.512,15.585,8.5-.254.092-8.881-4.743-9.14-4.821a52.125,52.125,0,0,1-6.954-2.45c-.45-.208-2.92-1.185-2.808-1.752C482.062,687.124,484.788,688.143,485.253,688.289Z" transform="translate(-394.829 -553.176)"/><path class="f" d="M606.4,763.25a.616.616,0,0,0,.416-.122.642.642,0,0,0,.13-.478q-.006-2.176-.012-4.352a13.382,13.382,0,0,0-4.026-.971l-6.411-.857c.147.02-1,2.761-.826,3.127.311.645,2.685,1.217,3.355,1.521C601.357,762.177,603.778,763.341,606.4,763.25Z" transform="translate(-483.277 -606.775)"/><path class="f" d="M539.677,753.688c-1.211.193-2.562.363-3.346,1.306-.994,1.2-.571,2.976-.1,4.457a1.445,1.445,0,0,0,1.686,1.206,5.826,5.826,0,0,0,3.243-.417,14.233,14.233,0,0,0,1.26-.937,8.079,8.079,0,0,1,2.317-1.059,23.425,23.425,0,0,1,4.65-.958,7.232,7.232,0,0,0,1.832-.323,2.03,2.03,0,0,0,1.29-1.252,2.985,2.985,0,0,0-.677-2.291,9.139,9.139,0,0,0-1.95-2.41c-1.195-.928-1.786-.216-2.989.378a25.359,25.359,0,0,1-7.219,2.3Z" transform="translate(-436.667 -602.18)"/><path class="d" d="M488.032,759.643l-7.686-2.272a10.175,10.175,0,0,0-2.86-.554,3.434,3.434,0,0,0-2.627,1.062,5.117,5.117,0,0,0-.915,2.563l-.318,1.94a9.742,9.742,0,0,0-.178,2.979,3.294,3.294,0,0,0,1.527,2.454,5.259,5.259,0,0,0,3.554.054,38.691,38.691,0,0,1,7.284-.781,5.846,5.846,0,0,0,2.7-.43,3.369,3.369,0,0,0,1.644-2.684C490.306,762.317,489.753,760.152,488.032,759.643Z" transform="translate(-388.185 -607.045)"/><path class="d" d="M646.211,755.231a18.669,18.669,0,0,0,2.831-1.075,12.589,12.589,0,0,1,4.224-.465,2.045,2.045,0,0,1,2.409,2.3l.643,4.5a7.062,7.062,0,0,1,.053,2.55,2.4,2.4,0,0,1-1.585,1.853c-1.005.261-1.99-.381-2.939-.8-2.372-1.054-5.129-.785-7.6-1.573a1.7,1.7,0,0,1-1.138-.814,1.852,1.852,0,0,1-.089-.778c.042-1.447-.263-3.422.173-4.8C643.583,754.882,645.1,755.231,646.211,755.231Z" transform="translate(-520.064 -604.613)"/><path class="d" d="M618.682,661.926a13.347,13.347,0,0,1,4.7-.321,4.956,4.956,0,0,1,4.976,5.594,13.233,13.233,0,0,1-2.876,8.451,7.668,7.668,0,0,1-1.644,1.583,10.826,10.826,0,0,1-2.139,1.031l-16.608,6.551a107.3,107.3,0,0,1-13.311,4.588,1.037,1.037,0,0,1-1.4-.506,34.413,34.413,0,0,1-3.64-6.658.449.449,0,0,1,.2-.707l11.747-6.749a11.873,11.873,0,0,0,2.391-1.647,5.935,5.935,0,0,0,1.228-1.709c.243-.509.266-1.709.577-2.085s1.346-.4,1.827-.542a16.591,16.591,0,0,0,1.989-.752c2.628-1.175,4.968-2.883,7.487-4.26a19.207,19.207,0,0,1,4.493-1.86Z" transform="translate(-476.269 -532.931)"/><path class="g" d="M634.855,681.507c-2.018,1.516-4.631,2.909-6.631,4.465-.683.531-12.062,6.929-12.223,7.778,1.866.314,13.753-8,15.454-8.831a27.469,27.469,0,0,0,4.7-3.162c.381-.3,1.994-1.186.9-1.516C636.442,680.055,635.309,681.2,634.855,681.507Z" transform="translate(-499.101 -547.472)"/><path class="d" d="M477.173,270.067l-8.985-4.706-12.408,1.925-2.567,11.339,6.391-.246,1.785-4.166v4.1l2.949-.114,1.711-6.632,1.07,7.06,10.483-.214Z" transform="translate(-352.49 -206.387)"/><rect class="a" width="19.335" height="23.335" transform="translate(103.342 86.94)"/><path class="f" d="M507.459,555.532a4.669,4.669,0,0,0,1.677,1.669,3.28,3.28,0,0,0,2.883-.077,5.075,5.075,0,0,0,2.081-2.086,10.382,10.382,0,0,0,1.057-5.766c-.122-1.978-.544-3.926-.731-5.9-.136-1.434-.147-2.877-.158-4.317a1.437,1.437,0,0,1,.181-.873,1.714,1.714,0,0,1,.963-.481c1.971-.586,3.279-2.433,4.217-4.262a7.388,7.388,0,0,0,1.05-3.925,3.081,3.081,0,0,0-2.469-2.885,3.96,3.96,0,0,0-2.978,1.388,12.769,12.769,0,0,0-3.739,7.472,28.945,28.945,0,0,1-.505,4.169c-.807,2.882-3.334,4.649-4.593,7.243C505.008,549.759,505.774,553,507.459,555.532Z" transform="translate(-413.296 -428.006)"/><path class="f" d="M639.85,514.442a5.447,5.447,0,0,1-3.055,2.935,4.219,4.219,0,0,1-2.655.163,2.944,2.944,0,0,1-1.945-1.74,4.688,4.688,0,0,1-.219-1.307,13.467,13.467,0,0,1,.628-5.762c.272-.7.639-1.364.854-2.084a10.452,10.452,0,0,0,.322-2.543l.232-5.3a3.45,3.45,0,0,0-.079-1.15,3.633,3.633,0,0,0-1.607-1.724,10.56,10.56,0,0,1-3.93-4.171,2.925,2.925,0,0,1-.271-1.728,2.871,2.871,0,0,1,2.33-1.965,5.212,5.212,0,0,1,6.249,4.2c.1.6.1,1.21.163,1.814.129,1.282.536,2.518.791,3.781.627,3.111.3,6.328.922,9.438C639.1,509.9,641.055,511.6,639.85,514.442Z" transform="translate(-508.507 -397.927)"/><path class="d" d="M141.075,630.358l-.444-.009a103.078,103.078,0,0,1,1.578-14.732c1.922-10.419,5.118-17.261,9.5-20.338l.255.364C141.729,602.829,141.081,630.083,141.075,630.358Z" transform="translate(-129.379 -481.408)"/><path class="d" d="M166.075,699.066l-.444-.009c.01-.492.287-12.093,4.854-15.3l.255.364C166.358,687.2,166.078,698.948,166.075,699.066Z" transform="translate(-148.823 -550.223)"/><circle class="e" cx="2.222" cy="2.222" r="2.222" transform="translate(22.891 109.831)"/><circle class="e" cx="2.222" cy="2.222" r="2.222" transform="translate(21.79 128.944)"/><path class="d" d="M152.646,586.97a9.872,9.872,0,0,1-.671,5.054,9,9,0,0,1-1.513-9.661A9.872,9.872,0,0,1,152.646,586.97Z" transform="translate(-136.43 -471.362)"/><path class="d" d="M177.832,621.087a9.872,9.872,0,0,1-5.094.22,9,9,0,0,1,9.25-3.173A9.872,9.872,0,0,1,177.832,621.087Z" transform="translate(-154.35 -499)"/><path class="d" d="M183.532,700.509a6.919,6.919,0,0,1-3.57.154,6.306,6.306,0,0,1,6.483-2.224A6.919,6.919,0,0,1,183.532,700.509Z" transform="translate(-159.969 -561.496)"/></g></svg>